<?xml version="1.0" encoding="UTF-8"?> <svg xmlns="http://www.w3.org/2000/svg" viewBox="0 0 1200 600"><path fill="#12003D" d="M331.9 596.3c-.2-1.4-.6-2.2-.9-1.9-.3.4-1.2-1-2-2.8-.7-2-1.8-3.4-2.4-3.4-.9 0-1-.2-.5-1.4.5-1 .4-1.5-.3-1.8-.7-.3-.7-.8 0-2.2.5-1.4.5-2-.1-2.3-.5-.2-1-.8-1-1.3s.2-.7.6-.4c.4.3.5 0 .2-1-.3-.8-.3-1.5.2-1.5s.5-.6-.2-2c-.7-1.5-.7-2 .1-2 .9 0 .9-.3 0-1.3-1-1.3-2.5 0-2 1.8 0 .5-.2 1-.6 1.3-.5.3-.7-.2-.6-1.7.1-1.2 0-2-.4-1.7-.3.4-1.1.3-2 0-1-.6-.8-.9 1.4-1.6 1.7-.5 2.7-1.4 2.6-2.3 0-.7.5-1.4 1.2-1.4s1.6-1 2-2c.7-2 3.8-4.8 5-4.5.2 0 2.1-.6 4.1-1.5 2-.9 5.5-2 7.7-2.5 2.3-.5 4.2-1.3 4.4-1.8.1-.5.9-1 1.7-1 .8-.1 3.1-1.6 5.1-3.3a17 17 0 014.8-3.2c.7 0 1.3-.6 1.5-1.1.1-.6 0-1-.5-1-.9 0-1-4.4-.1-4.5l3.4-1.6c1.6-.7 3.6-1.1 4.5-.8 1 .2 2.6 0 3.7-.6s3.6-1.7 5.6-2.4c5.4-2 8.3-3.4 8.2-4.4a309 309 0 00-42.5 3.2c-4.4.8-6.1.8-8-.3a52 52 0 00-5.3-2.7c-1.2-.6-2.6-.8-3.1-.5-.5.4-9.4 1.3-19.6 2-10.2.8-19.9 2-21.5 2.6a90 90 0 01-10.7 2.7c-4.3 1-8.4 2.1-9 2.7-.7.6-2.7 1-4.5.8-1.8-.1-3.4.1-3.6.6-.1.5-.5.6-1 .4-.3-.3-.5-.1-.5.5 0 .5-.1 1-.4.8-1.1-.3-6.7 1.8-6.6 2.6.1 1-4.7 2.8-6.7 2.6-.7-.1-1.7.7-2.3 1.9-.6 1-1.5 2.1-2.2 2.2l-5 .6a23 23 0 00-6.6 1.7c-1.4.7-3.6 1.6-5 2-1.3.4-2.2 1-2 1.6.8 1.4-.6 1.9-12 4-.6 0-1 .5-1 1 .2.6-.3 1.3-1 1.6-.7.4-2 1.5-2.7 2.5-1.1 1.3-3.6 2-8.8 2.8-4 .6-8 1-8.8 1-.8 0-2.4.8-3.4 1.7-1 1-2 1.3-2.4.8-.7-1.2-3.2-2.3-2.5-1.1.7 1.3 0 1.2-2-.1-3.8-2.7-20.5.4-21.9 4-.4 1.2-.4 2 0 2.2.5.1.8.7.9 1.2 0 .4-.4.6-.9.3-.5-.2-1.1 0-1.3.6-.5 1.6 3.5 1.2 5.4-.6 1-.8 3-1.8 4.6-2.3l4-1.3c.7-.2 1.3.2 1.3 1 .1.8 1 1 3 .7 2.1-.4 2.5-.2 1.7.6-.6.6-.9 1.5-.7 1.9.5 1-3 2-10.2 3.3-4 .6-5.3.5-5.9-.5-.5-1-.7-1-.6 0 .2 1.7-3.9 1.7-5.5-.2-.8-.9-1.3-1.1-1.3-.6 0 .5-2 .8-5.5.5l-10.6-.6c-2.7-.2-6-.8-7.3-1.3-1.3-.6-3-.8-4-.5-.8.3-1.8.1-2-.4-.4-.6-.2-.7.4-.3.6.5.7.4.4-.2-.7-1.2-4-2.1-7.7-2.2-2.3 0-2.8-.4-3-2.1-.3-2 .1-2.2 4-3.1 2.4-.6 5-1 6-1l1.7.2-2-1.3c-3.2-2.3-6.3-3.2-12.2-3.5-3.2-.2-7.8-1-10.3-1.7-5.7-1.8-24.7-.9-25.3 1.2-.2.7-.7 1-1.2.6-1.2-1-13.5-.7-13 .3s.4 1-8.3 1.8c-6 .6-8.6 1.1-17.7 3.3-4 1-6.6.7-9.2-1.1-1-.8-1-1.3 1.3-3.7 1.7-2 4-3.2 7.5-4 6-1.5 11.7-3.3 15.8-5 2.4-1 2.9-1.5 2.5-3-.4-1-1-1.5-1.4-1.2-.5.3-1 0-1-.5-.1-.6.4-1.1 1-1.2 1 0 1-.2 0-1-.6-.5-.7-.9-.2-1 .4 0 .5-.7.2-1.5-.3-1 .2-2 1.9-3.3l2.4-1.8-6.6-.3a115.4 115.4 0 00-14.5.3l1-2.5c.7-1.3 1.2-2 1.2-1.6 0 .3.7 0 1.4-1a17 17 0 016.2-2.9 38 38 0 007.3-3 13 13 0 014.9-1.6c3.7-.3 12.6-4.4 10-4.6a212 212 0 00-4.2-1c-1.7-.4-1.9-1.4-.6-2.1.8-.4 2-1.9 2.9-3.2.8-1.4 2.1-2.6 3-2.6.7 0 1.7-.7 2-1.5.5-1.2 0-1.5-3.3-1.8l-6-.9c-2.6-.4-13 .2-13.6 1-.9.9-8.5 1.7-8.6.9 0-.5.4-1.4.8-2.1.5-.7.8-1.8.8-2.4 0-.5-.3-.7-.5-.3-.2.4-.8.2-1.4-.4-.5-.6-1-.6-.9-.1 0 .5-.3 1-.9 1-1.6 0-1.3-1 .8-2.6 2.3-1.7 1.9-2.4-2.3-3.5-3.7-1-4.6-2.7-2.2-4.4 2.6-1.8 15-4.6 22.2-5 3.4-.2 7-.7 7.9-1.1l1.7-.8-2.2-2.2c-1.1-1.2-2.6-2.2-3.2-2.2-1.6 0-2.3-1.5-1.7-3.9.7-2.5 6-7.3 8.3-7.4 1 0 1.5-.5 1.2-1-.3-.6-1-1-1.7-1-1.2 0-2.7-2.3-2.6-4 0-1.9-10.3.7-11 2.6a50.7 50.7 0 01-18.9 5.4l-1.6-.8 1.4-1.3c.7-.8 6-2.8 11.8-4.6 10.6-3.3 13-5.3 6-5-2.3.2-4.3-.3-5-1-1.1-1.1-2.4-1-7.7.2-9.7 2.3-15.3 3.9-16.6 4.6-.9.4-1.2.2-1.1-1 0-1.8 1.9-4 4.9-5.9 2.6-1.6.8-2.8-2.7-1.7l-5.6 1.7-3 .8 2.1-3.6a28 28 0 002.1-4c0-.3-1.9-.7-4.2-1-5.5-.5-8.6-2.6-8.9-5.9-.2-1.7 3.9-4.2 7.9-4.9 1.6-.2 5.2-1.3 8-2.3 3-1 7.3-2.2 9.8-2.6a111.1 111.1 0 0025.3-7.8c.3-.4-.8-1-2.5-1.5-1.7-.6-3.2-1.5-3.2-2.3-.2-1.6 6.1-5.6 12-7.6 2.9-1 5-2.2 5.6-3.4.5-1.1 2.6-2.6 4.7-3.3 4.9-1.8 4.6-3.2-1.2-5.8-1.2-.6-2.1-1.6-2-2.3.2-1.4 3-3.8 4.7-3.9.7 0 1-.5.7-1-.3-.5-2.8-.8-5.5-.7-4.5.3-6.4-.7-4.3-2 1.8-1.3-7.9-.2-12.5 1.4-5.8 2-9.1 1.5-9.5-1.5-.1-1.3 1.4-3.2 5.8-7 4.2-3.7 5.8-5.6 5-6.1-1.2-1-.2-2.3 4-4.7 6-3.4 10.5-8.9 9.5-11.6-.6-1.9 1.7-3 11.6-5.8 5-1.3 9.8-3.2 10.9-4.1 1-.9 3.3-2 5-2.4 5-1.1 14-5.2 15.3-6.8.7-.8 2.1-1.6 3.2-1.7 1.1 0 2.6-.6 3.3-1 1-.8.6-1-1.5-1-5.7 0-8.8-.7-9.7-2-.6-1-1.5-1.3-2.4-.8-1.3.6-1.4.5-.4-.5.5-.6 1.5-1 2.2-1 .6.2 1.5-.1 2-.6s1.5-.4 2.6.3c1.4 1 2 1 2.9 0 .7-.8 1.3-.9 1.6-.3.3.6 2.2.9 4.3.8 2.1 0 4.6.4 5.6 1.2 2.2 1.5 2.9 1.6 2.8.3-.1-.5-.6-1-1.2-1-.6.1-1-.3-.8-.8.2-.5-.3-1-1.1-1.3-.8-.3-1.4-1-1.3-1.8.1-1.4 3-2.3 12.1-4 8.2-1.4 10.5-2.1 10.4-3.1 0-.5-.6-1-1.1-.9-.6 0-1.1-.8-1.2-1.9-.2-1.5.2-2 1.4-2 2-.2 2.1-1.7.3-2.3-.7-.2-4 0-7.5.5-10 1.4-14 1.3-16.4-.3-1.1-.8-2.3-1.3-2.5-1-.2.2-.4-.9-.4-2.4 0-3.4-1-3.8-7.9-3.8-4 .1-4.4 0-3.1-1.2 2.1-2 10.5-5 15.5-5.7 2.6-.4 5-1.3 5.8-2.3 1.7-2 2.8-2.2 4.3-.3.6.8 2.3 1.3 4 1.2 4.8-.3 23-4 25.3-5.3 2.3-1.1 2.3-1.3 1.5-4.5-.6-2-.7-3.8-.3-4.4.4-.8.3-1.5-.3-2.4-2-2.8 0-3.5 9.8-3.5 7.6 0 10-.4 11.3-1.6 1.5-1.4 8.6-3.5 13.6-4 .7-.1 2.8-.7 4.5-1.3l3.3-1-3.1-.6c-1.7-.3-6.6-.1-11 .4s-10.6 1-14 1.1c-3.2.1-9.6 1.2-14.1 2.3-8.9 2.3-18 4-22 4.2-1.5 0-2.8.5-3 1-.1.5-1.2 1-2.4 1.1-1 .1-2 .6-2 1 .1.5-.6.6-1.4.3-1.2-.4-1.3-.3-.5.5 1 .8 1 1 0 1a1 1 0 00-1 1.2c0 .7-.6.6-1.8-.4-2-1.6-2.8-1.9-2.1-.6.3.5-.1 1.1-.8 1.5-.7.3-1.3 0-1.4-.6 0-.7-1.2-1-2.6-1-1.6 0-2.4.6-2.2 1.3.2.8-.5 1.1-2.3.9-2.8-.4-5.8-2.6-6-4.4 0-.8-.3-.7-.6.3-.4 1.2-.6 1-.8-1.3-.4-3.5.4-6.6 1.7-6.7.5 0 .8-.5.5-1-.3-.6 0-1 .7-1.1 2.1-.3 3.5-1 4.8-2.5 1.2-1.4 4.4-1 4.5.5 0 .2-.4.3-.9 0-.5-.2-1.3.3-1.7 1.3-.6 1.5-.6 1.7.1.9.7-.7.8-.5.6 1-.2 1 .1 2 .7 2.5 1.4 1.2 2.4.9 1.1-.3-.8-.7-.4-.9 1.5-.6 1.5.2 3.1-.1 3.7-.8.9-.9 1.4-1 2.2 0 1 .9 1.2.8 1.5-.7.2-1 .2-2.1.1-2.5 0-.4.3-.8.8-.8s1-.6 1-1.2c.1-.6 1-1.3 2.1-1.6 1-.2 2.2-1 2.5-2 .3-.8.9-1.2 1.2-.8.3.4.4 0 0-1-.7-2 .5-2.4 1.3-.3.5 1.4.7 1.3 1.6-.2 1-1.7 1.1-1.7 1.3.1.2 1.6.3 1.7.7.4.7-2.3.5-2.8-1.3-3.3-1.2-.4-1.7-1.2-1.8-2.6-.1-2.3 2-4.2 4.7-4.1 2.5 0 4.6-1.3 4.4-3-.1-1 .5-1.4 2.4-1.3 2.7.1 7-1.2 8.5-2.7.8-.7.7-.9-.4-.9a84 84 0 01-4.7-.2c-5.7-.5-13.3 0-15.9.9-1.8.6-2.4.6-2.2-.2.2-.7 0-1-.5-.6-.5.3-1.5-.5-2.4-2-1-2-1.2-2.9-.7-3.2.5-.3.3-.8-.6-1.7-1.2-1.3-1.1-1.3.7-1 1.1.3 1.7.2 1.2-.1-1.8-1-1-2.4 1.6-2.5 1.6 0 2.7.3 2.8 1 0 1 .2 1 .5 0s.7-1 1-.4c.5 1 1.4.9 3.3-.6a8 8 0 013.4-1c2.8-.3 3.4-2.8.7-2.6-1.1 0-2.2-.6-2.5-1.4-.3-1-.1-1.5.8-1.5a2 2 0 001.6-1.4c.6-1.8 3-4 3.9-3.4.3.3.8 0 1-.5 0-.6 1-1.1 2-1.2 1 0 3.5-.9 5.3-1.9 3-1.5 3.3-1.9 2-2.5-1-.4-6.5-.4-12.5 0s-11.3.4-11.8 0c-.6-.5-1.1-.3-1.3.3-.4 1.3-21 3.4-21.6 2.2-.3-.4-.9-.5-1.4-.1-.7.4-.7.9-.2 1.3.5.3 0 .7-1.2.7-1 .1-2-.3-2-.8-.1-.5-.6-.3-1 .4-.6.7-1.2 1-1.5.6-.3-.4.1-1.6 1-2.6l1.4-2-1.7.6c-1.4.5-1.4.4-.3-.5 1.7-1.4 5-1.5 7 0 1.9 1.3 4 .7 3.9-1.2-.1-.8 1.2-1.3 4.2-1.5 2.7-.1 4.3.2 4.4.8 0 .6.4.4.8-.5.5-1.2 2.2-2 6.2-2.6 3.1-.6 7.4-1.7 9.7-2.6 2.2-1 5-1.7 6.1-1.9 1.2 0 3.6-.9 5.3-1.7 3-1.4 2.7-1.5-5.7-.5l-10 1.1c-.5 0-7.3 1.5-15 3.2a300 300 0 01-18.8 3.6c-2.6.3-4.5 1-4.3 1.3.2.4-1 .8-2.5 1-1.6 0-5.5.9-8.7 1.8-5.5 1.7-18.7 3.8-17 2.8.5-.3.6-1 .4-1.4-.3-.5.3-1 1.4-1 1-.1 2.8-1 4-2.2l3.3-3c2.2-1.8 40.5-13.6 49.6-15.3l17.3-3.6c6.9-1.4 16-3.3 20.1-4 4.2-.8 9-2.1 10.7-3 2.2-1.2 3.2-1.3 3.7-.5.5 1 7.5.3 15.8-1.5 1.3-.3 5.2-1 8.9-1.5 6.5-1 16.3-3.6 21.7-5.8 1.5-.6 3-.9 3.4-.6.4.3 5-.7 10.2-2.2 7.6-2.2 9.7-2.5 11-1.5 1.4.9 3 .6 8.7-1.4a13517.2 13517.2 0 0143.7-15.4c1.2 0 3.4-.8 5-1.7a139 139 0 0123-7.4c7.6-2.1 9.1-2.6 16.8-5.3a483 483 0 0121.4-6.8c7.5-2.3 9-2.4 10.8-.3 1 1 1.8 2.5 1.9 3.1 0 .6.3 1 .6 1l2-.1c1.3 0 1.4.3 1 2-.5 2.2.3 3.4 1.3 1.8 1.2-1.7 1-.2-.2 2.6a6.6 6.6 0 01-3.7 3.3c-2.2.7-2.4 1-1.6 2.2 1.3 1.9.4 2 42.2-8 3-.6 8-1.6 11.5-2 3.5-.5 9.7-1.5 13.9-2.3a302 302 0 0112.1-2.1 32 32 0 007.2-1.8 58 58 0 0112.6-1.8c5.6-.3 10.5-.8 11-1.1a137 137 0 0120.3-2.7c1.6 0 3.5.6 4.2 1.3 1.4 1.6 4.6 1.6 19.4 0 6.8-.8 13-2 15-3 2.5-1.2 6.9-1.8 18.7-2.3 8.5-.4 22.7-1.4 31.4-2.3 17.7-1.8 16.8-1.8 35.3-1.6 12 .1 19-.2 29.3-1.5 1.8-.2 2.8-.6 2.1-.8-.7-.2-1.3-.8-1.3-1.4 0-.7 1.8-1 5.4-.7l20.3.4c8.1.1 18.6.5 23.2.8a1193.8 1193.8 0 0085.3 2.9c6-.2 13.6-.1 16.8 0 3.1.3 7.8.3 10.4 0a87 87 0 0111.4.3c3.7.4 15.6.4 26.5 0 10.8-.3 21-.3 22.7.2 1.7.4 5.5.9 8.4 1l7.4.7c4 .7 10.2 1 19.3 1a233.2 233.2 0 0133 2 1228 1228 0 0123.6 1.8c.2.2 2.1.5 4.2.7 2.1.2 4.3.6 5 .9.5.3 3.6.5 6.9.5 9 0 8.9 0 9 1.5.2.8.6 1.5 1 1.5.3 0 .4-.6 0-1.2-.4-.8-.2-1 .7-.5.6.3 1.9.5 2.7.5 1 0 1.5.5 1.7 1.9.4 2.3 0 2.5-1.5.5-1.6-2-3.1-1.7-2.4.4.3 1 .3 1.3-.2.7-.4-.8-2.3-.8-5.9-.2a61 61 0 01-19.7.2l-10.2-1c-2-.2-4-.5-4.5-.7-.5-.2-1 .4-1 1.2-.2 1.1-.8 1.4-2.4 1-2.5-.7-4-.9-10.5-1.4-2.6-.3-4.9-.6-5.1-.8-.6-.4-9.5 0-21.6 1a50 50 0 01-17.5-.8c-2.4-.7-18.4-.2-18.4.6 0 .4 2.2.9 4.7 1.1l6 .8c5.2 1.3 19.2 2.2 30.3 2a157.4 157.4 0 0027.8 2 435.5 435.5 0 0023.5 1.2c1 0 1.3 1.3.5 2.1-.6.7-5.6 1-10.2.9-1.4 0-2.9-.7-3.2-1.4-.5-1-1.7-1-4.6-.4-2 .5-4 1-4.2 1.3-.2.2-1-.2-1.6-1-.6-.8-1.3-1-1.4-.6-.3 1-13.8 1.3-17.8.5-1.3-.3-3.6-.5-5-.6-1.6 0-3.5-.5-4.4-1.1-1.3-.9-1.6-.8-1.5.2.1.8-.7 1.5-2 1.7-5.1 1-12.5 1.3-18.4.9-4.3-.3-6-.2-5.4.5 3 2.4-1.8 4-9.6 3.1-7-.8-8.2-.8-11 0-1.5.5-3.7.5-4.8.2-3-1-18-2.2-24.6-2-3.1.1-7.7 0-10-.3l-10.8-.6c-3.6 0-11.9-.5-18.6-1a509 509 0 00-22-.9c-8.8 0-9.9 0-10 1.6-.3 1.4-1.4 1.7-7.8 2-4 .2-8.7.8-10.3 1.4l-2.9 1 5.1.8c2.8.4 6.2.7 7.5.6 1.2 0 6.6.3 11.8.9 5.2.6 15 1.2 21.9 1.5 6.8.2 13.1.6 14 .8.8.2 7.6.5 15 .6 13.5.2 23 .5 30.1.8l15.5.6c6.5.2 12.3.5 12.8.7l2.4 1.1c.8.4 2.6.7 4 .8 1.5 0 3 .8 3.6 1.7.7 1.2 2.5 1.5 8.6 1.3 4.2 0 8 .1 8.4.5.4.3 3 .7 5.8.8 13.3.8 26.5 1.4 32.6 1.3 3.7 0 11.6.5 17.5 1.1 6 .6 13.6 1.2 16.9 1.2a582.9 582.9 0 0164 2.5c3.8.1 7.1.6 7.4 1 .2.5-.6 1-1.8 1l-4 .6c-1 .2-2 0-2.3-.4-.2-.4-1.4-.1-2.7.5-1.3.6-4.3 1-6.7.7-2.5-.2-15.3 0-28.5.5s-29 1-35 1c-10.9-.1-13.9.4-6.7 1.1 2 .2 3.8.6 4 .8.6.7-1.7 2.6-3.7 3.1-2.3.6-2.9 2-.9 1.9l10.4.5c4.8.2 14.3.4 21 .3 11 0 12.2.1 12.4 1.7.2 2.2 3 2.5 19.2 2.6 6.5 0 12 .4 12.3.8.3.5 1.8.8 3.4.7 5.5-.3 4.2 2.5-2.3 5-1.8.8-4.3 1.4-5.5 1.3-8.2-.2-5.9 1.7 3.4 2.7 3.7.5 8.9 1 11.5 1l10.5 1c3.1.3 9.5.7 14.1.8 5.7.2 8.7.6 9.2 1.5.4.7 3 1.4 5.5 1.6 2.6.2 5.1 1 5.5 1.6.5.6 3 1.3 5.8 1.6 2.7.2 5.6 1 6.6 1.7 1 .9 4 1.4 8 1.5 8.6.1 15.4.9 15.9 1.7.4 1-5.3 2.6-6.2 1.9-.4-.4-.7-.2-.7.3s1.2 1.2 2.5 1.5c2.6.5 3.3 1.7 1.5 3-2 1.3 1.2 3.1 8.3 4.5 5.9 1.2 9.7 2.9 7 3.1-2.4.2 1.6 1.8 5.7 2.1 2.4.3 4.8.9 5.2 1.4.5.5 2.9 1.2 5.2 1.7 6.6 1.2 6.7 2.4.2 3.5-2.4.4-4.6 1.4-5.1 2.3-.8 1.4-2 1.6-6.3 1.2-8.7-.7-10.4-.4-11.4 2.2-.5 1.3-.7 2.7-.5 3 .2.4 2.4 1 5 1.2 2.4.2 4.8.7 5.2 1.1.4.4 2.2 1 4 1.3 4.9.8 4 2.3-1.5 2.6-2.6.1-5 .6-5.3 1-.2.4-3 1-6 1-4 .3-5.8.8-6 1.6 0 .9.7 1.3 2.5 1.2 1.4-.1 3.6.2 5 .6 1.3.4 5 1 8 1.1 3.2.2 6.1.7 6.6 1.2s1 .6 1.2.3c.2-.3 1-.3 2 .1 1.2.6.5 1-3 1.7-4.2.8-8.9 2.5-11.3 4-1.5 1 1.1 2 8.9 3 3.8.5 7 1.2 7 1.6 0 .3 2 .3 4.3-.1 3.5-.5 4.3-.4 4.5.8.2 1.8-1.6 4.8-2.9 4.9-.8 0-.8-.1 0-1 .7-.8.7-1-.3-1-.7 0-1.3.8-1.5 1.7-.2 1.3-1.3 1.5-8 1.4-8.3 0-10.3.7-8.5 3.3 3 4.5 14 8.8 21.1 8.4 4.4-.2 6.7.8 7 3.1.1 1.2-1 1.5-5 1.7-2.9.2-6.4-.1-8-.6-1.5-.5-8.4-.8-15.4-.6-12.4.2-12.8.3-12.7 2.2.2 2 1.1 3.2 2.6 3.5l6.6 1.4c10.5 2.3 19.9 3.6 29.3 4 8.8.3 11.8 1.3 11.2 3.5-.2.5-.6.7-1 .4-.4-.3-.6 0-.4.7.2.7-.2 1.3-.8 1.2-.7 0-1 .3-.8.7.2.4-.6 1.1-1.8 1.5-2.6 1-3 2.7-1.4 5.6 1 1.5 1.1 2.4.7 3.4-.7 1.6 0 2.6 1.6 2.5.7 0 1.3.1 1.3.4l.7 2c.6 1.6.1 1.7-5.4 1.4-3.3-.2-7.2-.5-8.6-.8-2-.3-2.5-.1-2.3 1.1 0 .9-.3 2-.9 2.5-1.3 1.4.2 7 2.2 8 1.5.8 1.5.9.2 1-1.3.3-1.3.3.1 1 1.4.8-.4 1.3-7.1 1.9-2.9.2-4.9 1.7-4.7 3.3 0 1-.5 1.5-1.7 1.6-1 0-2.5.4-3.3.8-1.3.6-1.3.7 0 2a5 5 0 003 1.1c1 0 4 1.4 6.6 3.2a17 17 0 007 3c4-.1 10.4.8 10.2 1.5-.1.5.3.7.9.6.6-.1 1.3.6 1.5 1.5.6 2.2-3 6.1-5 5.7-.9-.2-1.6.2-1.7.8-.1 1.4-7.9 2.2-11.1 1.2a87 87 0 00-15.3-.4c-11.9.4-15.3 1-10.7 2.2l5 1.3c1.7.4 4.3.8 5.9.7 1.6 0 2.9.3 3 .9 0 .5.5 1 1 .9.7 0 1.8.4 2.6 1 1.5 1 1.5 1 0 2.2-2.5 2.2-1.4 4 3.4 6 2.5 1 4.7 2.4 5 3.2.2.8.7 1.7 1 2 1.2.9.3 4-1 3.4-.5-.3-.8-.3-.6 0 .3.4-.1 1.8-.9 3.2-1 2-2.2 2.7-4.2 3-1.6.1-2.7.5-2.5.9.1.3-2.6.6-6.1.5-5.1-.1-6.6.2-7.4 1.4-1 1.8-7.5 2.8-11 1.8-1.4-.4-2.3-.2-2.6.5-.1.6-1 1.2-1.9 1.2-2 .1-3.5 1.2-3.4 2.3 0 .5.5.9 1 .8.6 0 1.3.6 1.7 1.5.5.9 3.2 2 7.3 2.9 7.9 1.8 13.9 4.9 13.6 7-.1.8-.7 1.2-1.2 1-.6-.3-.8-.1-.6.4.3.4-.1 2.3-1 4-1 2.4-1.7 3-2.7 2.6-.8-.3-1.2-.1-1 .4.3.4-.5 1-1.8 1-1.3.2-4.3 1.2-6.8 2.3l-4.5 2 1.7 2.2c1 1.2 2 2.2 2.4 2.2.3 0 1.7.7 3 1.5 2.4 1.4 2.5 1.6 1.8 3.8-.5 1.5-.5 2.6 0 3 .3.3.5 1 .3 1.6-.2.7-.5.6-1-.3-.5-.8-.9-1-1.1-.3a9 9 0 01-2.3 2.6l-1.8 1.6 2.2.2c2.3.2 3.8 2.7 2.2 3.7-.5.4-1.1.4-1.4.1-.2-.3-1.3.4-2.4 1.5-1.1 1-3.1 2.3-4.5 2.8-1.3.5-2.8 1.5-3.2 2.2-1 1.8-1.4 1.8-7.9-.2-5.8-1.8-7.3-1.5-9.2 1.7-1.1 1.8-1.6 2-5.2 1.2-4.7-1-13.3-.7-12.7.4.2.5 2.6 1.3 5.4 1.8 7 1.3 7.8 1.7 6.8 2.8-1.8 1.8 7.4 5.6 16 6.5 2.3.2 4.4.8 4.6 1.2.2.4 0 2-.7 3.5-1 2.5-1 2.8.2 4.4l1.3 2.2c.1 1.3-11.3.1-15.3-1.5-5.6-2.3-16.5-3.6-17.4-2-.4.8-.4 1.5.3 2.3.8 1.3 2 1.7 11.2 4.8 2.9 1 4.4 2 4.5 2.9 0 1.3-.7 1.4-4.9 1.1-3.2-.3-5.1 0-5.3.7-.2.5 0 1 .5 1 .4 0 .7.2.5.4-.4.7-10.1-1.7-11.2-2.7-.8-.9-10.8-2.6-12.8-2.2-.6 0-1 .7-1 1.4v2.6c-.3 1.3 8.1 3.4 22.5 5.7 2.1.3 5 1.2 6.4 2a11 11 0 004.7 1.2c3-.1 7.5 1.6 7 2.7-.3.5-4.3 1.2-9 1.6-4.5.4-8.3.8-8.2 1l3.6 1.8c3.4 1.7 3.5 1.8 2.2 3-1 1-2.3 1.1-4.8.5-4.2-1.1-4.8-1.1-4.7 0 .1.6 1 1.2 2.2 1.5 3.8 1 3.1 2.3-1.2 2.6-2.6.1-5 .9-6.2 1.9-1.2 1-2.6 1.4-3.5 1-2-.8-33.3.6-32.8 1.5 1 1.8-7.8 2.3-15.4.8-15.5-3-28.6-4.4-36.9-4.1-4.6.2-11.5-.1-15.5-.7-3.9-.5-10.8-1.2-15.4-1.5-4.6-.3-8.6-.7-8.8-1-.3-.1-2.8-.5-5.6-.7a354.9 354.9 0 00-31.3-1.3c-6.3 0-16.1-.3-22.8-.9a314 314 0 00-19 .1c-8.3.3-18.1.2-21.8 0-3.7-.3-13.9 0-22.6.5-13.1.8-15.9 1.2-16.3 2.5-.4 1.2-.6 1.3-1.2.1-.5-.9-1.4-1.1-2.7-.6-1 .3-2.2.2-2.7-.4-.5-.6-1.8-1-3-1.1-1.3 0-3-.4-3.7-.6-4.2-1.6-8.4-1.9-10-.7-1.2 1-4.6.1-4.3-1 .1-.5-3.1-.7-7.2-.7-11 .2-12.3.1-13.7-1.3-1.1-1.2-1.2-1.2-.8.5.3 1.3 0 1.8-.6 1.6l-2.6-.2c-.8 0-1.5-.3-1.5-.7 0-.4-.6-1-1.3-1.3-.8-.4-1-.1-.5 1 .4 1 .2 1.3-.4.8a23 23 0 00-7.2-.7c-7.4 0-6.3 0-40.7 2-14.4.9-28.1 1.4-30.4 1.1-2.3-.3-4.7-.2-5.3.2-1 .7-22.6 3.2-29.3 3.4-5.3.1-10.7 5-7.2 6.4.5.3.2 1-.7 1.8-.8.8-1.6 1.8-1.8 2.3-.6 1.7-6.1 2.9-7.8 1.7-1.1-.7-3.9-.9-8-.4l-25.5 2.3a222.6 222.6 0 00-29 3.5c-3.8.2-7.4 1-8 1.7a18.5 18.5 0 01-8.3 3 9.7 9.7 0 00-5.8.5c-1.2.5-2.8.9-3.6.8l-2.7-.2c-.7 0-4.1.6-7.5 1.4-3.4.9-7.5 1.6-9 1.7-1.7 0-3.3.6-3.6 1.1-.4.5-1.7 1.3-2.8 1.8-1.7.6-2.1.5-2.3-.9-.1-1.5-.7-1.5-5-.7-2.5.5-9.4 1.3-15.3 1.8-5.8.4-12.2 1.4-14 2.2l-3.9 1.3c-.1 0 .2.7.7 1.5.5.8 2 1.4 3.2 1.3 1.3 0 2.3 0 2.3.3l.6 2c.8 2-1 2-2.8 0-1-1.2-1.4-1.4-1.5-.5 0 .7-.4 1-.8.8-.3-.3-.6-.2-.6.2 0 .5-.5 1-1.4 1l-10 1.8c-4.7 1-14.2 2.1-21.1 2.7-7 .6-13.3 1.4-14.2 1.7-3 1.2-19.8 4.5-28.9 5.7-16.8 2.2-29.2 6.5-31.4 10.9-.7 1.3-2 2.5-3 2.6a202.4 202.4 0 00-34 6.2 67.3 67.3 0 00-11.2 3.1c-.2 0-.4-1-.5-2.5zm-1-9c-.1-1-.4-1.1-1.3-.3-.8.7-1 1.7-.7 2.6.4 1.1.7 1.2 1.4.3.4-.7.7-1.8.6-2.6zm110.6-20.9c2.4-1.5 2.4-1.5-3.1-.7-12.6 1.8-16.5 2.6-16.4 3.2.1 1.3 16.8-.8 19.5-2.5zm-310.4 5c0-.2-.5-.3-1-.3a1 1 0 00-1 1c0 .5.5.7 1 .3.6-.3 1-.8 1-1zm47.8-6c.2-.6-.4-1-1.3-.9-1 0-1.8.5-2 1.1-.2.6.4 1 1.4 1 .9-.1 1.8-.6 2-1.2zm-32.1-3.3c-.1-1-1-1-2.3-.2-1.6 1-1 2.2.8 1.6.9-.3 1.5-1 1.5-1.4zm376.6-20.8c2.1-1 2.4-1.4 1.2-1.8-1.8-.5-22.8 2-34 4-3 .6 20.9.3 25.7-.3 2.4-.3 5.5-1.2 7-1.9zM546 537c.7-.3-.7-.4-3-.2-5.7.4-7.8 1.4-4.2 2 1.5.2 3.5 0 4.3-.5l3-1.3zm-424.7 23.5c1.4-.1 1.4-.1-.3-1-2-1-3.4-.3-3.2 1.4 0 .6.5.8 1 .4.6-.3 1.7-.7 2.5-.8zM556 535.6c.2-.3-1-.5-2.7-.5-1.6 0-3.1.5-3.3 1.1-.2.8.6 1 2.7.5 1.7-.3 3.2-.8 3.3-1zm519.2-40.2c.2-.6-.9-.9-2.9-.7-2.8.3-3 .4-1 1 3 .9 3.6.9 4-.3zM47.8 537.1c-.5-.3-1-.2-1.2.1-.2.4.2.6 1 .5.7-.1.8-.4.2-.6zm7.8-1.8c1.2-.7 1.3-.8.2-.8-.7 0-1.9.4-2.6 1-1.5 1.1.2 1 2.4-.2zm9 0c.5-.4.8-1.5.7-2.5-.1-1.5-.6-1.7-3-1.1-3 .7-4.7 2.5-2.4 2.4.8 0 1.7.4 2 .9.6 1.1 1.2 1.2 2.6.2zm1079.3-76.5c0-.5-.6-1-1.2-1-1 .2-1 .3 0 1 1.3 1.2 1.4 1.2 1.2 0zm-1069 18c-.5-.2-1.1-.2-1.3.2-.2.3.3.5 1 .4.7 0 .9-.3.3-.6zm-5.8-2.6c-.1-1.6-2-1.7-4.3-.1-2.5 1.6-1.7 2.6 1.5 2 2-.3 3-1 2.8-1.9zm12.5 0c-.9-1.5-3.3-1.8-3.1-.3 0 .9.8 1.4 1.8 1.3 1 0 1.5-.5 1.3-1zm-5.2-.8c.7-.7.3-1-1.6-.8-1.4 0-2.4.5-2.4 1 .1 1.3 2.8 1.2 4-.2zM1173.5 297c0-.6-.4-1-.8-1-.3 0-.6.5-.5 1 0 .6.4 1 .8 1 .3 0 .6-.5.5-1zm2.9-18.8c-.5-.2-1.3-.2-1.7.1-.4.3 0 .5.9.5s1.3-.3.8-.6zm-11.3-11.4c-.8-.1-2.2 0-3 .2-.8.3-.1.4 1.6.4 1.6-.1 2.3-.4 1.4-.6zm-31.6-6.3c0-.4-2.6-1.1-5.7-1.6s-6.4-1.2-7.3-1.5c-1-.4-1.5-.2-1.2.4.3.5 3.2 1.4 6.5 1.9s6.3 1 6.7 1.2l.9.3v-.7zm-971.7 44c1.1-.8 1-.9-.6-.8-1 0-1.9.4-2 1-.4 1.2.9 1.1 2.6-.1zm965.4-58.6c0-.5-3.1-1.2-6.9-1.7-8.4-.9-9.9-.8-9 .4.5.5 4.2 1.1 8.2 1.4 4.1.2 7.5.5 7.6.6.1 0 .2-.3.1-.7zm-1004.6 43c.1-.4-.2-.8-.7-.7-.6 0-1 .4-1 .8.1.5.4.8.8.8.3 0 .7-.4.9-.8zm88.8-6.7c-.5-.2-1-.2-1.3.2-.1.3.3.5 1 .5.7-.1.9-.4.3-.7zM108 286.5c0-.6-.6-1-1.3-1-1 .2-1 .3 0 1 1.3 1.2 1.4 1.2 1.3 0zm2.5-1.7c0-.2-.4-.4-.7-.4-.4 0-.6.5-.6 1 0 .7.4.8.7.5.4-.4.6-.9.6-1zm37.2-9c.9-.4 3.6-1.2 6.2-1.8a37 37 0 009-3.4c0 .4 4.3-2 6.4-3.5 3.3-2.4 3.3-4 .1-3.9-1.6.1-2.3-.3-2.5-1.3-.1-1.6 2.8-2.3 7.8-2 2.2 0 8.1-2 9.4-3.3 1-1-2.5-1.8-6.9-1.7-2.8.1-5.2 1-8 2.9a19 19 0 01-5.4 2.7c-1 .1-1.1.3-.3 1 .6.5 1.3.6 1.6.3.2-.2.5 0 .6.5 0 .8-1.3 1.5-6.3 3.1-1.2.4-2.2 1.3-2.4 2.1-.1 1.2-.4 1.2-1.3.2-1-1-1.1-1-.7.4.4 1 .2 1.5-.9 1.4-.8 0-2.4.4-3.5 1-1.5.7-2.5.6-3.2-.2-.6-.6-1-.7-1-.1.1 1-4.6 4.5-6.4 4.6-.6 0-1 .7-1 1.4.1 1 1 1.2 3.6.9 2-.3 4.2-.8 5-1.3zm23.5-37.4c-.5-.2-1.1.1-1.5.7-.4.8-.1 1 1 .4.8-.4 1-.8.5-1zm803.5-48c0-.3-1-.7-2.1-.8-1.2 0-1.8.3-1.6.9.6 1 3.8 1 3.7 0zm-802.6 37.8l1.6-.2-1.6-.8c-2-1-4.8 0-4.7 1.5 0 .5.8.7 1.6.3.8-.4 2.1-.7 3-.8zm796.6-43.4c0-.5-.5-.8-1-.8-.6 0-1 .4-1 .9 0 .4.6.8 1.1.7.6 0 1-.4 1-.8zm2.8 0c-.5-.3-1-.2-1.2.1-.2.3.2.6.9.5.8-.1 1-.4.3-.6zm-788.2 41.1c-.5-.2-1-.2-1.2.2-.2.3.2.5.9.4.8 0 .9-.3.3-.6zm-74.8 2.8c0-.5-.4-1-.8-1-.3 0-.6.5-.5 1 0 .6.4 1 .8 1 .3 0 .6-.4.5-1zm17-3.5c0-1.1-1.2-.1-1.4 1.3-.2 1.4-.1 1.4.6.3a5 5 0 00.8-1.6zm6.7-.3c0-.8-.3-1.5-.4-1.4-.2 0-.4.6-.5 1.5-.1.8 0 1.5.4 1.4.4 0 .6-.7.5-1.5zm867.7-81.5c-.5-.3-1-.2-1.2.1-.2.4.2.6.9.5.8-.1.9-.3.3-.6zM385 156.9c.2-.5 0-1.2-.4-1.5-.4-.3-.8.2-.9 1-.2 1.6.8 2 1.3.5zM114.5 599c-.5-.7-.6-1.3-.3-1.3s0-.5-.8-1c-1.9-1.5-.5-2.9 3-3 1.8 0 2.2.2 1.4.7-1.2.7-1.9 3.3-.8 3.2 1.9-.2 3.2-1.6 2.7-3-.4-1.4-.4-1.4.6 0 1.4 2 6.5 2.2 6.7.2.2-1 .4-1 1.4 0 1.4 1.5 2.6 5.3 1.4 4.8-.4-.3-.8-1-.7-1.8 0-1-.3-.8-1 .4-.8 1.4-2.2 1.8-7 1.9-3.7 0-6.1-.4-6.6-1.1zm-9.4-1.7c-1-.8-.8-3 .3-3 .7-.1 1.7 2.7 1.1 3.3-.2.2-.9.1-1.4-.3zm13.2-8.7c-.9-1.8-.9-2 .5-2.2l2.4-.5c1.8-.3 2.2.5 1.2 2.5-1.2 2.5-2.8 2.6-4 .2zm402.4-29.5c0-.2.2-.7.6-1 .3-.4.6-.3.7.3 0 .6-.2 1-.6 1.1-.4 0-.7-.2-.7-.4zm7.7-1.1c.4-.7 1-1 1.2-.7.2.3-.1.8-.7 1.2-1 .6-1 .5-.5-.5zM171 574.9c0-.4.3-1.4.8-2.2.7-1 1.1-1 1.8-.1.8.9.8 1.3 0 2.1-1 1.2-2.5 1.4-2.6.2zm750.5-50.1c-.1-.6.3-1 .8-1 .5-.1 1.2.3 1.5.8.3.6-.1 1-.9 1-.7.1-1.4-.3-1.4-.8zm-11.5-.5c0-1.1 1.7-1.3 2.3-.2.2.4-.2.8-.9 1-.7 0-1.3-.3-1.4-.8zM249.7 559c-.8-2.3 0-2.7 2.5-1.1 1.3.8 2.1 1.5 1.8 1.6-2.8.8-3.8.7-4.3-.5zM825 525c0-.6 0-1 .2-1 .1 0 .5.4.8 1 .3.4.2.9-.2 1-.4 0-.7-.5-.8-1zm-9.7-.4c-.4-.6-.5-1.5-.3-1.8.5-1 1.3.3 1.1 1.8-.1 1-.3 1-.8 0zm2.5.1c-1.5-.7-1.2-2.1.3-1.6.8.2 1.4.8 1.5 1.3 0 1-.4 1-1.8.3zm318.5-22.4c-.9-1.1-.7-2.3.3-2.4.6 0 1 .6 1.2 1.5.2 1.5-.6 2-1.5.9zm-826.6 39.1c-.2-.4.2-.8.9-1 .7 0 1.1.3 1 .8-.4 1.1-1.3 1.3-1.9.2zm5.8-2c.1-.8.7-1.6 1.3-1.6l4-.8c2.2-.4 2.8-.3 2.1.5-.7.8-.7 1 0 1 .6 0 .9.2.7.6-.2.3-2.2.9-4.3 1.2-3.3.5-4 .4-3.8-.9zM43.7 552c-.7-1.2.5-2.4 1.4-1.7.8.7.6 2.5-.4 2.6-.3 0-.8-.4-1-1zm3.5-26.1c0-.5.2-1.2.5-1.6.3-.4.5 0 .4 1-.3 1.7-.8 2-.9.6zm4.8-.8c0-.8.1-1.2.5-1 .3.3.5 1 .3 1.5-.4 1.3-.6 1.2-.8-.5zm1146-192.7c-.6-.5-.8-1-.4-1s1.2.4 1.8.9c.6.5.8 1 .4 1-.3 0-1.1-.4-1.8-1zM96.8 318.8c0-.5.5-.8 1.3-.9.7 0 1.3.4 1.4.9 0 .5-.5.9-1.3.8-.7 0-1.3-.4-1.4-.8zm26.3-16.1l-1.7-1.8 3.9-1c2.1-.6 5.4-1.1 7.4-1.3 1.9 0 3.4-.5 3.4-.9-.1-.7 4 .6 4.7 1.6.3.3-.4.4-1.6.1-1.3-.3-2.8.2-3.9 1.2-1 .9-3.3 1.8-5.2 2-2 0-3.5.6-3.4 1 .1 1.4-1.8 1-3.6-.9zm-8.3.8c.2-.4.7-.5 1.2-.2.6.3.5.5-.3.6-.7.1-1.1-.1-1-.4zm-13.6-13c-.1-1.1 0-1.7.2-1.4.3.3.4 1.2.3 2-.2.7-.3.5-.5-.7zm17.3-9.4c.1-.4-.5-1.6-1.3-2.5-1.5-1.6-1.5-1.7 2.3-4.8 4.5-3.7 5-3.8 5.2-1.2.1 1.3-.2 2-1 2.1-1 0-1 .2 0 1 .5.4 1.5.6 2.1.3.7-.2 1.3 0 1.3.6s-.9 1-2 1l-3.6.1c-1 .2-1 .3-.2 1.1 1 .8 1 1 0 1-.7 0-1.1.5-1 1 0 .6-.5 1-1 1.1-.6 0-1-.3-.8-.8zm7.6-8.4c-.7-.6-.7-1 0-2 .9-1.4 1.9-.3 1.3 1.5-.2.7-.7.9-1.3.5zm-27.5-40.5c-.3-.5 0-1 .5-1s1.2.4 1.5 1c.3.5 0 1-.5 1s-1.2-.4-1.5-1zm13.2-5.1c.8-1.8 1.1-2 1.3-.7 0 .5-.4 1.2-1 1.5-.8.6-.9.5-.3-.8zm938.9-67.5c.6-1.2 4.8-2.4 5.8-1.6.5.4.6.9.3 1-3.5.8-6.4 1-6.1.6zm-4.2-1c-.6-.5-.2-.8 1.1-.9 1.1 0 2 .3 2.1.7.1 1-2 1.2-3.2.2zm-17.2-.3c-3-.8-10-1.1-23-1-4.4 0-8.7-.4-9.6-1-1-.7-4-.8-7.5-.5-3.3.4-6 .5-6 .4 0-.3 3.5-3.5 4-3.5.2 0 .2.5 0 1-.1.6.6 1 1.8 1 1.1-.2 2-.6 2-1.2-.1-.5.2-1 .5-1 .4 0 .6.5.4 1.2-.3 1-.2 1 .5.2a3 3 0 012.2-1h4.9c1.9 0 3.4.3 3.3.7-.2.4 1.6.6 3.8.4 2.3-.2 4.7 0 5.4.5.8.6 1.2.5 1.1-.2 0-.6.3-.8.8-.4s3.4.7 6.6.6a71 71 0 0112.6.7c.2.2 1 .5 2.1.8.6.1-2.3 3.2-2.8 3l-3.1-.7zm-27.5-3.5c0-.5-.7-.9-1.4-.8-.7 0-1.4.5-1.6 1-.1.4.5.8 1.4.7 1 0 1.6-.4 1.6-1zm35.3-4.8c-.3-.6-.8-.7-1.1-.4-.3.3-.6.1-.7-.4-.2-2 .9-2 1.9-.2.6 1 .9 2 .7 2-.2 0-.5-.5-.8-1zm-14.7-3.1c-.8-1-1.6-1.6-1.7-1.4-.2.3-1.7.7-3.5 1-3 .5-7-1.3-6.3-2.8.7-1.2 5.3-1.2 6.5 0 1.1 1.2 3 1.2 3.7-.1.6-1.1 4-1 4.6 0 .8 1.5.2 5-.8 5-.6 0-1.7-.7-2.5-1.7zm7 .4c-.4-.7-.3-.9.2-.5.4.3.9.1 1-.4.5-1.6 1.4-1.3 1.6.4.2 1.7-2 2-2.8.5zm-779 35.2c.3-.3.8-.4 1.3-.1.6.2.5.5-.3.6-.7 0-1.1-.2-1-.5zM381.7 147c0-.5 0-1 .2-1s.5.4.8 1c.3.5.2 1-.2 1-.3 0-.7-.4-.8-1zm15.6-.7c-1.2-1.1-1.2-2.8 0-2.4.9.2 1.3-.2 1.3-1.2l-.1-3c0-.9.5-1.6 1.1-1.7.7-.1 1.4-.3 1.7-.5.3 0 1.3-.6 2.4-1.1 2.3-1.1 3.5-2.6 2.9-3.8-.3-.5.1-.9.8-1a2 2 0 011.8 1.2c.4.9.6 1 1 .2.7-2 2.7-2.7 3.9-1.4 1 1 1 1 .5-.2-.6-1-.5-1.3.5-.8.6.3 1.6.6 2.1.6s1.2.7 1.5 1.8c.4 1.2 1 1.6 1.7 1.3 1.7-.8 1.2-3.2-.4-2.6-1.3.4-1.3.4-.1-.6.6-.6 2.2-1.1 3.4-1.2 1.3-.1 4-.7 6.2-1.4a295.1 295.1 0 0135.1-7.4c3.5-.7 10.2-1.8 19.1-3.1l10.6-1.8c5.6-1 14.6-1.5 16-1 .5.3 2.3.8 3.9 1.2 1.6.3 3 .9 3 1.3s-.6 1.9-1.3 3.3c-1.2 2-2 2.5-4.8 2.6-2 0-3.2.5-3 1 .2.6 2.6 1 5.5.9 4.4-.2 7.5 1 6.6 2.4a24 24 0 01-9.2 1.1c0-.3-2-.2-4.5 0a34 34 0 01-8.4 0c-2.1-.5-4-.5-4.2-.3-.1.3-1.5.7-3 .9-1.6.2-3.7.7-4.6 1.2-1 .5-2.2.5-2.8-.1-.5-.6-3.8-1-7.4-.9-4.4 0-6.3-.2-6.1-1 .2-.6-.1-.4-.7.4-.7 1-1.8 1.2-3.7.9-1.9-.3-2.6-.2-2.3.5.6 1.1.5 1.1-5.5 1.7-2.4.2-5 .8-5.7 1.3-.8.4-1.5.5-1.5 0 0-.4-.8-.7-1.8-.7-.9 0-1.6.4-1.5.8 0 .4-.4.8-1 .8s-1-.3-.8-.8c.4-1.1-6.3 1-6.7 2-.7 2.2-12.9 5-13.1 3 0-.6-.4-1-.8-1s-.5.4-.2 1c.7 1.4-.7 2.3-1.8 1.2-.8-.8-1.1-.8-1.3.2 0 .9-1.1 1.3-3 1.3-1.4 0-2.6.3-2.6.8.2 1.7-3.3.8-4.2-1-.5-1-1-1.5-1.4-1.2-.3.4-.4 1-.2 1.5.3.4 0 1-.4 1.4a1 1 0 01-1.5-.4c-.3-.5-1.1-.3-2 .7-2 1.8-8.1 4-9 3zm-10-4c-.2-1.7.1-2 .9-.7.2.5.2 1.2-.2 1.6-.3.4-.7 0-.7-.9zm2.3-1.8c.3-.6 1-1 1.5-.7.5.2.3.6-.6 1-1 .5-1.3.4-1-.3zm229-15.1c-.9-.2-1.6-.7-1.6-1.1-.2-1.2 2.8-.7 3.2.5l.2 1-1.8-.4zm-14-1.5c1.6-1.3 2.7-1.3 1.6-.1-.5.5-1.4 1-2 1-.6 0-.5-.3.3-1zm4-.1c-.3-.5.1-.7.9-.5 1.6.5 1.9 1.2.5 1.3-.5 0-1.2-.4-1.4-.8zm-86 2.4c-1.2-1.5-.7-1.6 7.5-2.2 4.8-.3 9.4-.8 10.2-1 .8-.3 1.6-.2 1.9.3.2.4 1.3.6 2.4.5 3-.5 3.2 1 .2 1.5-1.4.3-2.4.2-2.3-.2.4-1.4-.6-.8-1.5.8-1 1.7-3.7 2.2-4.5.7-.3-.6-.9-.6-1.7.1-1.3 1.3-2.8.6-2.3-1 .2-.8 0-.9-.5-.3-.5.5-2.5 1.3-4.5 1.7-2.8.6-3.8.4-4.9-.9zm53.5-1.8c0-.5 0-1 .2-1s.5.5.8 1c.3.5.2 1-.2 1-.3 0-.7-.4-.8-1zm-26.8-.5c-.7-.5-.8-1-.3-1 .4 0 1 .4 1.3 1 .6 1.2.4 1.2-1 0zm260-14.4c.2-.8-2.4-1.6-2.9-.8-.6 1-3.5 1.4-3.6.4 0-.6-2-.7-5.2-.1-4 .6-5.7.5-7.6-.6-1.4-.9-2-1.4-1.4-1.1.7.2 1.3 0 1.3-.5s.6-1 1.1-1.3c.5-.2 1.1-.8 1.4-1.4.2-.5.5 0 .6 1.2.2 2 .3 2 1.9.6 1.5-1.3 1.8-1.3 2.8.2 1 1.6 1 1.6.5 0-.4-1.4-.2-1.8 1-1.8 1 0 2 .6 2.5 1.6s.8 1.1.8.4c-.2-1.3 1.8-1.9 2-.6 0 .4 2.3.6 5 .4 2.8-.2 5.2 0 5.5.5.2.4 1 .7 1.8.7 1.1 0 1.3.2.7 1.2-.7 1.3-8.6 2.3-8.3 1zm10.9-.6c0-.4 0-.8.4-.9l2.5-.6c2.6-.7 3.7 1 1.3 1.8-2.5.8-4.1.7-4.2-.3zm-48.3-.7c0-.5-1.2-.9-2.6-.8-1.4 0-2.7.6-2.9 1.1-.2.7-.4.7-.5 0-.1-1.2-4.2-1.2-4 0 0 .5-.2.7-.6.4-.7-.6-6.6-1.2-13-1.4-2 0-3.6-.2-3.6-.3-.1-.6-8.9-.2-9.4.5-.8 1.3-7.4 2.4-7.5 1.4 0-.5-.6-.9-1.1-.9a1 1 0 00-.9 1c0 .6-4.6 1-12.4 1.2l-14.2.3c-.8 0-2.6-.2-3.9-.7-1.4-.4-2.3-.4-2.2.1 0 1-2.3 1-3 0-.2-.2-3.2-.1-6.7.2-4.2.5-6.7.4-7.5-.4-.8-.8-1-.8-.9.3.1.8 0 1-.4.3-.4-.6-4.2-.8-9.6-.6l-33.4 1.1c-13.4.5-30.6 1-38.2 1.4-7.6.4-13.8.4-13.9 0 0-.3-1.7-.5-3.7-.4-2 .1-3.6.5-3.6 1 0 .4-.2.7-.6.7-.4 0-.6-.4-.4-1 .2-.5-.2-1-.7-.9a1 1 0 01-1.2-1c0-.5-.4-.9-.8-.9s-.5.5-.2 1c.3.6-.4 1-1.7 1.1-1.6 0-2-.1-1.3-1 .7-.7.7-1 0-.9-.6 0-.6-.3 0-1.5.5-.8 1.5-1.6 2.2-1.6.8 0 1.4-.6 1.3-1.1 0-.7.5-.9 1.4-.5 1 .4 1.3.2.9-.5-.3-.6-.4-1-.2-1 .2-.1.7.8 1.1 1.9l.7 2 1.6-2.1c1-1.5 1.7-1.8 2-1.1.5.8.8.7 1-.3.4-1.1 5-1.6 24.3-2.6a931.9 931.9 0 0160.3-1.4c24.6-.2 31-.2 31.5.3 1.4 1 6.9 1.8 7.6 1 .4-.5 1-.4 1.4.3.5.9.8.8 1.1-.4.3-.8.6-1 .7-.5 0 .6 4.2.7 11.2.3 11.1-.8 30.3-.2 30.4.8 0 .3 2.4.4 5.2.2 4.9-.4 16.2.4 18.3 1.2.8.3.8.7.3 2-.6 1.2-.6 1.4.2 1 .4-.3 1.6-.8 2.6-1.2 1.1-.5 1.6-1.2 1.3-2-.3-.6 0-.4.4.4.8 1.2 1.7 1.3 4.6.6 2-.6 4.2-.6 4.9-.1.7.5 2.1.9 3.1.9 1.8 0 1.8 0 .4.5-1.2.5-1.4.8-.6 1.4 1.2 1 .3 1.1-9 1.8-3.3.3-5.5 0-5.6-.6zM577.4 110c-.3-.8-.8-1.2-1-.8-1 .9-.5 2.4.6 2.3.6 0 .7-.6.4-1.5zm-38.5 5.5c.5-1.9.5-2.1-.4-1.5-.9.6-1 .3-.5-1.6l.6-2.2.9 2.2c1 2.5 2.4 2.8 2.7.5.2-.8 0-1.4-.3-1.4s-.6-.7-.7-1.5c-.1-1.2.5-1.4 3.2-1 2.2.3 3.2 0 3.1-.7 0-.6 1-1.2 2.3-1.2 1.5-.1 2.2.2 2 1-.2.7 0 .7 1-.1 1-1 1.2-1 1 .3-.1.8-.5 1.6-.8 1.6-.4 0-.6.4-.5 1 .2 2 1.3.8 1.8-2.1.5-3.4.6-3.4 2.4-2.2.9.7 1.3 1.7 1.2 3.5 0 1.4.2 2.4.5 2.3.3-.2.8 0 1 .6.3.5-1.3 1-3.8 1.3-3.8.4-4.2.2-5.1-2-1-2.2-3.6-3.1-3.3-1 0 .5.3.7.7.4.3-.4.5 0 .3.8 0 .9-.6 1.3-1.3 1-.7-.4-1-.2-.5.5.6 1.3-1.5 2.3-4 2-1 0-2.3.3-2.9.8-1 .9-1 .8-.6-1.3zm17.9-4.7c.1-.4-.2-.8-.7-.8-.5 0-.8.4-.5.9l.6.8c.2 0 .4-.4.6-.9zm-26.8 5.4c-.2-.5.1-1.1.8-1.4.9-.4 1.1-1.1.7-2.2-.3-.8-.3-1.5 0-1.6 1 0 1.2 3.2.4 4.7-.9 1.6-1.3 1.7-1.9.5zm3.8-3c.1-.7.3-1.3.4-1.3l.7 1.3c.2.7 0 1.3-.4 1.3-.5 0-.8-.5-.7-1.3zm2.3-2.9c.6-.8 1.8-1.5 2.6-1.6 1.5-.1 2.7 1.3 1.8 2.3-.3.3-.7 0-1-.5-.2-.9-.6-.9-1.6 0-1.9 1.8-3.2 1.6-1.8-.2zm-8.9.4c.2-.4.8-.4 1.3-.2.5.3.4.6-.4.7-.7 0-1-.2-.9-.5zm35-2.3c-.9-.8-.9-1 .1-1 .7 0 1.2.3 1.3.9.1 1.2 0 1.2-1.3 0zm-3.7-1.3c-.4-1.3-.3-1.4.9-.6 1.7 1.2 1.9 2 .6 2-.5 0-1.2-.6-1.5-1.4z"></path><path fill="#F7DF1E" d="M349 55L795.6.2l54.9 446.6-446.7 54.8L349 55z"></path><path fill="#000" d="M512.3 413.8l31.6-24.9c8 11 15.3 20 29.6 18.3 13.8-1.7 21.9-8.1 19.3-29.1l-17.5-142.7 42-5.2 17.5 143.3c5.4 43.5-17.7 66.4-54.9 71-33.5 4.1-55.2-10.9-67.6-30.7M660.1 391.1l31.8-24c10.8 13.6 23.8 23 44.5 20.4 17.4-2.1 27.4-12.2 26-24.2-1.8-14.3-13.9-18-34-24l-11.1-3.3c-31.9-9.2-54-22.9-58.2-57-3.8-31.5 17.2-58.5 54.7-63 26.7-3.4 47 3.6 63.8 26.2l-30.1 25c-8.8-12-17.2-16.2-29.2-14.7-12.3 1.5-19.1 10.3-17.9 20.5 1.6 12.5 10 16.7 29 22.3l11 3.2c37.5 10.9 59.5 24 63.8 59 4.7 37.9-22.5 62.2-62.3 67.1-39 4.8-66.5-10.7-81.8-33.5"></path></svg> 